<svg xmlns="http://www.w3.org/2000/svg" width="18.938" height="16.969" viewBox="0 0 18.938 16.969">
  <defs>
    <style>
      .cls-1 {
        fill: #a3bbc8;
        fill-rule: evenodd;
      }
    </style>
  </defs>
  <path class="cls-1" d="M122.526,37.978a2.074,2.074,0,0,1,0-4.147h0.006A2.074,2.074,0,0,1,122.526,37.978Zm0.007-2.963h0a0.883,0.883,0,1,0,.628.258,0.886,0.886,0,0,0-.628-0.258Zm8.385,2.963a2.074,2.074,0,0,1,0-4.147h0a1.937,1.937,0,0,1,1.468.6,2.077,2.077,0,0,1-.667,3.383A2.1,2.1,0,0,1,130.918,37.978Zm0.006-2.963h0a0.979,0.979,0,0,0-.823.548,0.888,0.888,0,1,0,1.449-.291A0.9,0.9,0,0,0,130.924,35.015Zm-11.279.164a0.584,0.584,0,0,1-.25-0.056,0.592,0.592,0,0,1-.286-0.787,3.681,3.681,0,0,1,3.054-2.151l-1.055-5.391a0.593,0.593,0,1,1,1.163-.227l1.091,5.578h9.423l1.807-6.771h-13.3a4.354,4.354,0,0,1-4.283-3.693,0.592,0.592,0,1,1,1.171-.175,3.165,3.165,0,0,0,3.115,2.682h14.07a0.593,0.593,0,0,1,.573.745l-2.123,7.956a0.594,0.594,0,0,1-.573.44H122.885a0.044,0.044,0,0,0-.023,0,2.656,2.656,0,0,0-2.68,1.51A0.593,0.593,0,0,1,119.645,35.178Z" transform="translate(-117 -21)"/>
</svg>
