<?xml version="1.0" encoding="utf-8"?><svg viewBox="0 0 512 512" xmlns="http://www.w3.org/2000/svg"
    xmlns:xlink="http://www.w3.org/1999/xlink">
    <style>
        :root>svg {
            display: none
        }

        :root>svg:target {
            display: block
        }
    </style><svg viewBox="0 0 58 59" id="calendar" xmlns="http://www.w3.org/2000/svg">
        <g fill-rule="nonzero" transform="translate(0 -1)" fill="none">
            <path d="M51 57h4.892a2.1 2.1 0 002.086-2.392L52 13z" fill="#f29c1f" />
            <rect fill="#f0c419" height="54" rx="3" width="52" y="6" />
            <path d="M48 12v6H4v-6a2.006 2.006 0 012-2h40a2.006 2.006 0 012 2z" fill="#e64c3c" />
            <path
                d="M48 18v30.17c0 .533-.213 1.044-.59 1.42l-5.82 5.82c-.376.377-.887.59-1.42.59H6a2.006 2.006 0 01-2-2V18z"
                fill="#ecf0f1" />
            <path
                d="M18 45a6.006 6.006 0 006-6v-8a6 6 0 00-12 0v8a6.006 6.006 0 006 6zm-4-14a4 4 0 118 0v8a4 4 0 11-8 0zM29 43a1 1 0 000 2h8a1 1 0 000-2h-3V26a1 1 0 00-1.707-.707l-4 4a1 1 0 001.414 1.414L32 28.414V43z"
                fill="#547580" />
            <path d="M37 48H14a1 1 0 000 2h23a1 1 0 000-2z" fill="#35495e" />
            <path d="M47.82 49c-.1.22-.24.42-.41.59l-5.82 5.82c-.17.17-.37.31-.59.41V51a2.006 2.006 0 012-2z"
                fill="#d1d4d1" />
            <g fill="#95a5a5">
                <path
                    d="M23.66 6h-2.09A5 5 0 1017 13a1 1 0 010 2 7 7 0 116.6-9.33c.04.105.06.217.06.33zM42.66 6h-2.09A5 5 0 1036 13a1 1 0 010 2 7 7 0 116.6-9.33c.04.105.06.217.06.33z" />
            </g>
        </g>
    </svg><svg viewBox="0 0 19.02 17.02" id="cart" xmlns="http://www.w3.org/2000/svg">
        <path class="bcls-1"
            d="M5.526 16.978a2.074 2.074 0 010-4.147h.006a2.074 2.074 0 01-.006 4.147zm.007-2.963a.883.883 0 10.628.258.886.886 0 00-.628-.258zm8.385 2.963a2.074 2.074 0 010-4.147 1.937 1.937 0 011.468.6 2.077 2.077 0 01-.667 3.383 2.1 2.1 0 01-.801.164zm.006-2.963a.979.979 0 00-.823.548.888.888 0 101.449-.291.9.9 0 00-.626-.257zm-11.279.164a.584.584 0 01-.25-.056.592.592 0 01-.286-.787 3.681 3.681 0 013.054-2.151L4.108 5.794a.593.593 0 111.163-.227l1.091 5.578h9.423l1.807-6.771h-13.3A4.354 4.354 0 01.009.681.592.592 0 111.18.506a3.165 3.165 0 003.115 2.682h14.07a.593.593 0 01.573.745l-2.123 7.956a.594.594 0 01-.573.44H5.885a.044.044 0 00-.023 0 2.656 2.656 0 00-2.68 1.51.593.593 0 01-.537.339z" />
        </svg><svg viewBox="0 0 22.14 18" id="favourites" xmlns="http://www.w3.org/2000/svg">
        <path data-name="Forma 1" class="ccls-1"
            d="M21.99 5.82a6.208 6.208 0 00-1.849-4.1A5.871 5.871 0 0016 0c-2.311 0-3.948 1.78-4.827 2.74a2.156 2.156 0 01-.156.17l-.083-.09C10.134 1.9 8.458 0 5.996 0a5.873 5.873 0 00-4.139 1.72 6.208 6.208 0 00-1.849 4.1 6.845 6.845 0 001.271 4.34 29.307 29.307 0 004.763 4.75C7.747 16.32 9.992 18 11.007 18c1.032 0 3.269-1.68 4.965-3.09a29.234 29.234 0 004.746-4.75 6.935 6.935 0 001.272-4.34zm-2.376 3.61a27 27 0 01-4.431 4.42c-2.406 2-3.831 2.79-4.172 2.82-.342-.03-1.77-.83-4.188-2.84a26.78 26.78 0 01-4.437-4.4 5.6 5.6 0 01-1.054-3.54 4.807 4.807 0 014.666-4.57c1.863 0 3.216 1.54 3.943 2.37A1.52 1.52 0 0011 4.45a1.731 1.731 0 001.151-.81c.794-.87 2.122-2.32 3.851-2.32a4.807 4.807 0 014.666 4.57 5.528 5.528 0 01-1.054 3.54z" />
        </svg><svg viewBox="0 0 6.1 10.97" id="insights__arrow" xmlns="http://www.w3.org/2000/svg">
        <defs>
            <style>
                .dcls-1 {
                    fill: #262626;
                    fill-rule: evenodd
                }
            </style>
        </defs>
        <path class="dcls-1"
            d="M.55 10.97a.53.53 0 01-.41-.19.6.6 0 01-.15-.4.631.631 0 01.17-.43l4.55-4.47L.16 1A.607.607 0 01-.01.58.629.629 0 01.14.17a.559.559 0 01.8-.02l4.98 4.9.01.01a.657.657 0 01.12.17.7.7 0 01.05.25.742.742 0 01-.05.25.61.61 0 01-.12.16c0 .01-.01.01-.01.02l-4.98 4.9a.589.589 0 01-.39.16z" />
    </svg><svg viewBox="0 0 490.688 490.688" id="menu__btn" xmlns="http://www.w3.org/2000/svg">
        <g fill="#607d8b">
            <path
                d="M472.328 216.529L245.213 443.665 18.098 216.529c-4.237-4.093-10.99-3.975-15.083.262-3.992 4.134-3.992 10.687 0 14.82l234.667 234.667c4.165 4.164 10.917 4.164 15.083 0l234.667-234.667c4.093-4.237 3.975-10.99-.262-15.083a10.666 10.666 0 00-14.821 0l-.021.001z" />
            <path
                d="M472.328 24.529L245.213 251.665 18.098 24.529A10.668 10.668 0 003.015 39.612l234.667 234.667c4.165 4.164 10.917 4.164 15.083 0L487.432 39.612c4.237-4.093 4.354-10.845.262-15.083-4.093-4.237-10.845-4.354-15.083-.262-.089.086-.176.173-.262.262h-.021z" />
        </g>
        <path
            d="M245.213 469.415a10.663 10.663 0 01-7.552-3.115L2.994 231.633c-4.093-4.237-3.975-10.99.262-15.083 4.134-3.992 10.687-3.992 14.82 0l227.136 227.115 227.115-227.136c4.237-4.093 10.99-3.975 15.083.262a10.666 10.666 0 010 14.821L252.744 466.279a10.674 10.674 0 01-7.531 3.136z" />
        <path
            d="M245.213 277.415a10.663 10.663 0 01-7.552-3.115L2.994 39.633A10.668 10.668 0 0118.077 24.55l227.136 227.115L472.328 24.529c4.093-4.237 10.845-4.354 15.083-.262s4.354 10.845.262 15.083c-.086.089-.173.176-.262.262L252.744 274.279a10.674 10.674 0 01-7.531 3.136z" />
    </svg><svg viewBox="0 0 20.18 20.18" id="more" xmlns="http://www.w3.org/2000/svg">
        <path class="fcls-1"
            d="M19.45 16.8l-4.588-4.59a8.827 8.827 0 01-2.651 2.65l4.588 4.59a1.874 1.874 0 002.651-2.65zM15 7.5A7.5 7.5 0 107.5 15 7.5 7.5 0 0015 7.5zm-7.5 5.62a5.625 5.625 0 115.625-5.62A5.628 5.628 0 017.5 13.12zM3.125 7.5h1.25A3.135 3.135 0 017.5 4.37V3.12A4.386 4.386 0 003.125 7.5z" />
        </svg><svg viewBox="0 0 22 25" id="play" xmlns="http://www.w3.org/2000/svg">
        <defs>
            <style>
                .gcls-1 {
                    fill: #fff;
                    fill-rule: evenodd
                }
            </style>
        </defs>
        <path id="gForm_24" data-name="Form 24" class="gcls-1"
            d="M970.684 3900.74l-16.044 9.8a3.228 3.228 0 01-3.062.14 2.685 2.685 0 01-1.579-2.39v-19.59a2.685 2.685 0 011.579-2.39 3.258 3.258 0 013.062.15l16.044 9.79a2.666 2.666 0 011.316 2.25 2.638 2.638 0 01-1.316 2.24z"
            transform="translate(-950 -3886)" />
    </svg><svg viewBox="0 0 18.938 16.969" id="products__card" xmlns="http://www.w3.org/2000/svg">
        <defs>
            <style>
                .hcls-1 {
                    fill: #a3bbc8;
                    fill-rule: evenodd
                }
            </style>
        </defs>
        <path class="hcls-1"
            d="M5.526 16.978a2.074 2.074 0 010-4.147h.006a2.074 2.074 0 01-.006 4.147zm.007-2.963a.883.883 0 10.628.258.886.886 0 00-.628-.258zm8.385 2.963a2.074 2.074 0 010-4.147 1.937 1.937 0 011.468.6 2.077 2.077 0 01-.667 3.383 2.1 2.1 0 01-.801.164zm.006-2.963a.979.979 0 00-.823.548.888.888 0 101.449-.291.9.9 0 00-.626-.257zm-11.279.164a.584.584 0 01-.25-.056.592.592 0 01-.286-.787 3.681 3.681 0 013.054-2.151L4.108 5.794a.593.593 0 111.163-.227l1.091 5.578h9.423l1.807-6.771h-13.3A4.354 4.354 0 01.009.681.592.592 0 111.18.506a3.165 3.165 0 003.115 2.682h14.07a.593.593 0 01.573.745l-2.123 7.956a.594.594 0 01-.573.44H5.885a.044.044 0 00-.023 0 2.656 2.656 0 00-2.68 1.51.593.593 0 01-.537.339z" />
    </svg><svg viewBox="0 0 20.03 20.031" id="products__grid" xmlns="http://www.w3.org/2000/svg">
        <defs>
            <style>
                .icls-1 {
                    fill: #fff;
                    fill-rule: evenodd
                }
            </style>
        </defs>
        <path class="icls-1"
            d="M2.15 4.287a2.146 2.146 0 112.14-2.145 2.145 2.145 0 01-2.14 2.145zm0 7.869a2.146 2.146 0 112.14-2.147 2.146 2.146 0 01-2.14 2.147zm0 7.868a2.146 2.146 0 112.14-2.146 2.145 2.145 0 01-2.14 2.146zm7.86-15.737a2.146 2.146 0 112.15-2.145 2.143 2.143 0 01-2.15 2.145zm0 7.869a2.146 2.146 0 112.15-2.147 2.144 2.144 0 01-2.15 2.147zm0 7.868a2.146 2.146 0 112.15-2.146 2.143 2.143 0 01-2.15 2.146zm7.87-15.737a2.146 2.146 0 112.15-2.145 2.143 2.143 0 01-2.15 2.145zm0 7.869a2.146 2.146 0 112.15-2.147 2.144 2.144 0 01-2.15 2.147zm0 7.868a2.146 2.146 0 112.15-2.146 2.143 2.143 0 01-2.15 2.146z" />
    </svg><svg viewBox="0 0 22 18" id="products__like" xmlns="http://www.w3.org/2000/svg">
        <defs>
            <style>
                .jcls-1 {
                    fill: #a3bbc8;
                    fill-rule: evenodd
                }
            </style>
        </defs>
        <path id="jForma_1" data-name="Forma 1" class="jcls-1"
            d="M882.99 1569.82a6.208 6.208 0 00-1.849-4.1A5.871 5.871 0 00877 1564c-2.311 0-3.948 1.78-4.827 2.74a2.156 2.156 0 01-.156.17l-.083-.09c-.8-.92-2.476-2.82-4.938-2.82a5.873 5.873 0 00-4.139 1.72 6.208 6.208 0 00-1.849 4.1 6.845 6.845 0 001.271 4.34 29.307 29.307 0 004.763 4.75c1.705 1.41 3.95 3.09 4.965 3.09 1.032 0 3.269-1.68 4.965-3.09a29.234 29.234 0 004.746-4.75 6.935 6.935 0 001.272-4.34zm-2.376 3.61a27 27 0 01-4.431 4.42c-2.406 2-3.831 2.79-4.172 2.82-.342-.03-1.77-.83-4.188-2.84a26.78 26.78 0 01-4.437-4.4 5.6 5.6 0 01-1.054-3.54 4.807 4.807 0 014.666-4.57c1.863 0 3.216 1.54 3.943 2.37a1.52 1.52 0 001.059.76 1.731 1.731 0 001.151-.81c.794-.87 2.122-2.32 3.851-2.32a4.807 4.807 0 014.666 4.57 5.528 5.528 0 01-1.054 3.54z"
            transform="translate(-861 -1564)" />
    </svg><svg viewBox="0 0 20 20" id="products__search" xmlns="http://www.w3.org/2000/svg">
        <defs>
            <style>
                .kcls-1 {
                    fill: #a3bbc8;
                    fill-rule: evenodd
                }
            </style>
        </defs>
        <path id="kForma_1" data-name="Forma 1" class="kcls-1"
            d="M759.45 1579.8l-4.588-4.59a8.827 8.827 0 01-2.651 2.65l4.588 4.59a1.874 1.874 0 002.651-2.65zm-4.45-9.3a7.5 7.5 0 10-7.5 7.5 7.5 7.5 0 007.5-7.5zm-7.5 5.62a5.625 5.625 0 115.625-5.62 5.628 5.628 0 01-5.625 5.62zm-4.375-5.62h1.25a3.135 3.135 0 013.125-3.13v-1.25a4.386 4.386 0 00-4.375 4.38z"
            transform="translate(-740 -1563)" />
    </svg><svg viewBox="0 0 22 9" id="right" xmlns="http://www.w3.org/2000/svg">
        <defs>
            <style>
                .lcls-1 {
                    fill: #436372;
                    fill-rule: evenodd
                }
            </style>
        </defs>
        <path class="lcls-1"
            d="M.3 5.47h16.94l-.1 2.86a.3.3 0 00-.08.2.323.323 0 00.08.21l.18.17a.267.267 0 00.4 0l4.2-4.21a.3.3 0 00.08-.2.323.323 0 00-.08-.21L17.72.08a.29.29 0 00-.4 0l-.18.17a.323.323 0 00-.08.21.318.318 0 00.08.2l.12 2.86H.29a.3.3 0 00-.29.3v1.37a.291.291 0 00.3.28z" />
    </svg><svg viewBox="0 0 22 9" id="slider__arrow" xmlns="http://www.w3.org/2000/svg">
        <defs>
            <style>
                .mcls-1 {
                    fill: #fff;
                    fill-rule: evenodd
                }
            </style>
        </defs>
        <path class="mcls-1"
            d="M.3 5.472h16.948l-.1 2.857a.292.292 0 000 .41l.172.172a.28.28 0 00.2.086.285.285 0 00.2-.084l4.193-4.211A.292.292 0 0022 4.5a.283.283 0 00-.084-.2L17.723.087a.289.289 0 00-.407 0l-.172.173a.287.287 0 00-.084.2.278.278 0 00.084.2l.113 2.865H.292A.3.3 0 000 3.82v1.37a.292.292 0 00.3.282z" />
    </svg><svg viewBox="-42 0 512 512" id="user" xmlns="http://www.w3.org/2000/svg">
        <path
            d="M333.672 123.309c0 33.886-12.152 63.218-36.125 87.195-23.973 23.973-53.309 36.125-87.195 36.125h-.059c-33.844-.012-63.16-12.164-87.133-36.125-23.976-23.977-36.125-53.309-36.125-87.195 0-33.875 12.149-63.211 36.125-87.184C147.121 12.16 176.438.012 210.293 0h.059c33.875 0 63.21 12.152 87.195 36.125 23.973 23.973 36.125 53.309 36.125 87.184zm0 0"
            fill="#ffbb85" />
        <path
            d="M427.168 423.945c0 26.735-8.504 48.38-25.254 64.32C385.36 504.02 363.464 512 336.844 512H90.313c-26.622 0-48.516-7.98-65.06-23.734C8.494 472.312 0 450.672 0 423.946c0-10.282.34-20.454 1.02-30.235.69-10 2.09-20.883 4.152-32.363 2.078-11.575 4.75-22.516 7.95-32.516 3.32-10.352 7.812-20.562 13.37-30.344 5.774-10.152 12.555-18.996 20.156-26.277 7.97-7.621 17.711-13.742 28.973-18.203 11.223-4.438 23.664-6.688 36.977-6.688 5.222 0 10.28 2.137 20.03 8.489a2715.05 2715.05 0 0020.895 13.472c6.704 4.274 15.782 8.282 27.004 11.903 9.864 3.191 19.875 4.972 29.766 5.28 1.09.04 2.18.06 3.27.06 10.984 0 22.093-1.801 33.046-5.34 11.223-3.621 20.313-7.63 27.012-11.903a2683.96 2683.96 0 0020.887-13.46c9.758-6.364 14.808-8.5 20.043-8.5 13.3 0 25.742 2.25 36.972 6.687 11.262 4.46 21.004 10.594 28.965 18.203 7.614 7.281 14.395 16.125 20.164 26.277 5.563 9.79 10.063 19.992 13.371 30.332 3.204 10.012 5.883 20.953 7.961 32.535 2.051 11.493 3.453 22.375 4.141 32.348.691 9.75 1.031 19.922 1.043 30.242zm0 0"
            fill="#6aa9ff" />
        <path
            d="M210.352 246.629h-.059V0h.059c33.875 0 63.21 12.152 87.195 36.125 23.973 23.973 36.125 53.309 36.125 87.184 0 33.886-12.152 63.218-36.125 87.195-23.973 23.973-53.309 36.125-87.195 36.125zm0 0"
            fill="#f5a86c" />
        <path
            d="M427.168 423.945c0 26.735-8.504 48.38-25.254 64.32C385.36 504.02 363.464 512 336.844 512H210.293V286.465c1.09.039 2.18.058 3.27.058 10.984 0 22.093-1.8 33.046-5.34 11.223-3.62 20.313-7.628 27.012-11.902a2683.96 2683.96 0 0020.887-13.46c9.758-6.364 14.808-8.5 20.043-8.5 13.3 0 25.742 2.25 36.972 6.687 11.262 4.46 21.004 10.594 28.965 18.203 7.614 7.281 14.395 16.125 20.164 26.277 5.563 9.79 10.063 19.992 13.371 30.332 3.204 10.012 5.883 20.953 7.961 32.535 2.051 11.493 3.453 22.375 4.141 32.348.691 9.75 1.031 19.922 1.043 30.242zm0 0"
            fill="#2682ff" /></svg>
</svg>